<svg xmlns="http://www.w3.org/2000/svg" class="img-fluid" id="outputsvg" style="transform: rotate(90deg); scale: 0.96; transition: transform 200ms ease-in-out;" width="744" height="744" viewBox="0 0 7640 7440"><g id="l1GAZtQy6K9FUWS7zynBNsp" fill="#FFF" style="transform: none;"><g style="transform: none;"><path id="pIlSwXtP2" d="M 3950 7392 c -134 -67 -78 -320 86 -388 74 -31 86 -9 19 31 -45 26 -105 95 -105 121 0 10 8 10 36 -2 46 -19 84 -11 120 27 25 26 29 38 29 89 0 51 -4 63 -29 89 -26 27 -78 51 -111 51 -5 0 -26 -8 -45 -18 z  M4093.8181188255285 7278.924817617793 C 4093.8181188255285 7231.871138455728 4055.673575193168 7193.726594823368 4008.619896031103 7193.726594823368 3961.566216869038 7193.726594823368 3923.421673236677 7231.871138455728 3923.421673236677 7278.924817617793 3923.421673236677 7325.978496779859 3961.566216869038 7364.123040412219 4008.619896031103 7364.123040412219 4055.673575193168 7364.123040412219 4093.8181188255285 7325.978496779859 4093.8181188255285 7278.924817617793 Z M4066.0 7345.0 "/><path id="pYafwZDtv" d="M 2160 6930 c 0 -41 85 -236 131 -302 11 -14 19 -29 19 -32 0 -3 -35 -6 -78 -6 -74 0 -79 1 -90 25 -18 40 -32 29 -32 -25 0 -50 0 -50 125 -50 106 0 125 2 125 15 0 9 -25 66 -55 128 -34 68 -61 142 -72 189 -16 75 -17 78 -45 78 -21 0 -28 -5 -28 -20 z "/><path id="p1BhXh39Uy" d="M 5655 6919 c -9 -13 -11 -12 62 -34 67 -19 107 -53 118 -97 5 -21 1 -33 -20 -54 -25 -25 -30 -26 -90 -20 -64 6 -64 6 -59 -81 3 -49 7 -94 10 -100 2 -9 28 -13 84 -13 63 0 80 -3 80 -14 0 -8 5 -18 11 -22 19 -12 32 13 25 50 -7 35 -7 35 -84 38 -77 3 -77 3 -80 55 -3 51 -3 51 38 46 25 -4 56 0 84 11 117 45 72 180 -77 230 -55 19 -93 21 -102 5 z "/><path id="pRGJpo4bH" d="M 7080 5600 c 0 -50 0 -50 -90 -50 -80 0 -90 -2 -100 -21 -13 -24 -18 -15 102 -174 65 -87 89 -111 110 -113 27 -3 27 -3 30 130 3 124 4 133 23 136 42 7 48 11 35 27 -7 8 -23 15 -36 15 -22 0 -24 4 -24 50 0 47 -2 50 -25 50 -23 0 -25 -3 -25 -50 z  m 0 -190 c 0 -55 -3 -100 -7 -100 -8 1 -143 184 -143 194 0 3 34 6 75 6 75 0 75 0 75 -100 z "/><path id="pkgDpgTTP" d="M 874 5610 c -12 -4 -31 -21 -44 -37 -31 -39 -22 -88 24 -130 33 -30 34 -33 17 -45 -44 -32 -55 -108 -20 -151 40 -51 138 -60 192 -17 46 36 44 103 -3 150 -21 21 -21 21 15 54 82 78 16 187 -112 185 -26 0 -58 -4 -69 -9 z  M1026.4759867471937 5513.659438614389 C 1026.4759867471937 5470.167078991222 991.2184630239974 5434.909555268026 947.7261034008312 5434.909555268026 904.233743777665 5434.909555268026 868.9762200544689 5470.167078991222 868.9762200544689 5513.659438614389 868.9762200544689 5557.151798237555 904.233743777665 5592.409321960751 947.7261034008312 5592.409321960751 991.2184630239974 5592.409321960751 1026.4759867471937 5557.151798237555 1026.4759867471937 5513.659438614389 Z M1012.0 5563.0  M1022.8512888662524 5305.686655865653 C 1022.8512888662524 5267.074580983146 991.5500176092505 5235.773309726144 952.9379427267438 5235.773309726144 914.3258678442372 5235.773309726144 883.0245965872352 5267.074580983146 883.0245965872352 5305.686655865653 883.0245965872352 5344.29873074816 914.3258678442372 5375.6000020051615 952.9379427267438 5375.6000020051615 991.5500176092505 5375.6000020051615 1022.8512888662524 5344.29873074816 1022.8512888662524 5305.686655865653 Z M1005.0 5356.0 "/><path id="pWIWHapU8" d="M 400 3930 c 0 -6 19 -19 43 -29 48 -21 91 -63 107 -105 12 -32 6 -46 -12 -28 -7 7 -32 12 -56 12 -37 0 -50 -6 -78 -34 -30 -30 -34 -41 -34 -84 0 -97 79 -160 169 -134 57 18 84 60 89 138 6 85 -18 152 -73 207 -51 51 -155 89 -155 57 z  m 144 -200 c 24 -9 26 -15 26 -66 0 -48 -4 -59 -29 -85 -35 -34 -49 -36 -85 -8 -22 17 -26 29 -26 68 0 82 45 118 114 91 z "/><path id="pUzi4GiDh" d="M 7400 3928 c 0 -9 21 -21 58 -31 71 -20 112 -55 112 -96 0 -36 -31 -61 -77 -61 -49 0 -49 -17 1 -40 56 -27 77 -69 55 -109 -10 -18 -24 -27 -47 -29 -40 -4 -62 12 -62 45 0 18 -5 24 -17 21 -14 -2 -18 -13 -18 -43 0 -38 2 -41 40 -53 54 -18 121 -7 152 25 21 20 24 31 20 60 -4 20 -15 46 -27 58 -23 25 -25 35 -7 35 24 0 57 45 56 76 -1 47 -31 87 -90 117 -66 33 -149 47 -149 25 z "/><path id="pFoM927qI" d="M1065.4353499347026 1938.3046252059162 C 1065.4353499347026 2026.3459508101178 994.063753796737 2097.717546948083 906.0224281925356 2097.717546948083 817.9811025883341 2097.717546948083 746.6095064503686 2026.3459508101178 746.6095064503686 1938.3046252059162 746.6095064503686 1850.2632996017146 817.9811025883341 1778.8917034637493 906.0224281925356 1778.8917034637493 994.063753796737 1778.8917034637493 1065.4353499347026 1850.2632996017146 1065.4353499347026 1938.3046252059162 Z M840.0 2093.0  m 127 -49 c 21 -33 29 -122 13 -168 -24 -75 -90 -100 -128 -51 -39 50 -37 165 3 223 24 33 89 31 112 -4 z "/><path id="p4MxyN1QZ" d="M 560 2090 c 0 -6 11 -15 24 -19 14 -6 25 -20 28 -38 6 -36 0 -204 -8 -212 -3 -3 -15 -6 -27 -6 -39 0 -28 -22 17 -34 81 -20 76 -29 76 138 0 149 0 149 30 155 60 12 30 26 -55 26 -51 0 -85 -4 -85 -10 z "/><path id="pzjxnftPD" d="M 6904 2069 c -4 -8 24 -41 75 -88 86 -80 105 -115 89 -163 -12 -33 -58 -54 -86 -39 -11 6 -22 24 -25 41 -11 53 -47 33 -47 -26 0 -56 143 -73 195 -24 18 17 25 34 25 62 0 54 -20 88 -87 147 -58 51 -58 51 4 51 58 0 63 -2 69 -25 3 -14 13 -25 21 -25 11 0 13 11 11 48 -3 47 -3 47 -120 50 -82 2 -119 -1 -124 -9 z "/><path id="pGsQ4Bugr" d="M 1920 796 c 0 -7 11 -17 25 -20 25 -6 25 -6 25 -131 0 -125 0 -125 -30 -125 -16 0 -30 -5 -30 -10 0 -12 30 -24 83 -34 37 -7 37 -7 37 144 0 151 0 151 30 157 57 11 26 28 -58 31 -66 2 -82 0 -82 -12 z "/><path id="pEmcjODls" d="M 2135 800 c -8 -13 -9 -12 28 -28 27 -12 27 -12 27 -132 0 -120 0 -120 -30 -120 -63 0 -21 -35 51 -42 34 -3 34 -3 39 147 5 146 6 149 28 155 13 3 24 10 25 15 3 14 -159 19 -168 5 z "/><path id="pdXltv0T0" d="M 5690 795 c 0 -8 8 -15 19 -15 36 0 42 -23 39 -141 -3 -114 -3 -114 -37 -119 -29 -4 -32 -7 -19 -17 8 -7 36 -16 61 -19 46 -7 46 -7 49 142 3 148 3 148 27 154 14 3 26 11 29 18 3 9 -19 12 -82 12 -70 0 -86 -3 -86 -15 z "/><path id="p1DJgDVVjG" d="M 3620 357 c 0 -7 14 -18 30 -24 31 -12 31 -12 28 -130 -3 -118 -3 -118 -35 -121 -61 -6 -32 -32 50 -45 37 -6 37 -6 37 144 0 150 0 150 30 156 17 3 30 12 30 19 0 11 -20 14 -85 14 -62 0 -85 -3 -85 -13 z "/><path id="p4ajEIp4C" d="M 3826 361 c -10 -16 3 -35 56 -76 123 -97 144 -196 47 -220 -32 -8 -59 16 -59 51 0 19 -5 25 -17 22 -13 -2 -19 -15 -21 -45 -3 -39 -2 -42 34 -53 58 -19 133 -8 161 24 50 58 18 143 -83 220 -47 36 -47 36 15 36 56 0 62 -2 73 -25 20 -44 39 -31 36 23 -3 47 -3 47 -120 50 -65 1 -119 -2 -122 -7 z "/></g></g></svg>